<?xml version="1.0" encoding="UTF-8"?>
<svg version="1.1" xmlns="http://www.w3.org/2000/svg" width="1024" height="1024">
<path d="M0 0 C337.92 0 675.84 0 1024 0 C1024 337.92 1024 675.84 1024 1024 C686.08 1024 348.16 1024 0 1024 C0 686.08 0 348.16 0 0 Z " fill="#162435" transform="translate(0,0)"/>
<path d="M0 0 C337.92 0 675.84 0 1024 0 C1024 337.92 1024 675.84 1024 1024 C686.08 1024 348.16 1024 0 1024 C0 686.08 0 348.16 0 0 Z M569 40 C567.90429688 40.46921875 566.80859375 40.9384375 565.6796875 41.421875 C559.08072182 44.49808456 553.52563951 48.29110648 548 53 C546.90945313 53.85658203 546.90945313 53.85658203 545.796875 54.73046875 C528.89095525 68.59214071 519.80917565 90.31857196 517.62109375 111.703125 C516.96940953 131.1275192 523.43018656 147.96456538 532 165 C531.32195313 165.84820312 530.64390625 166.69640625 529.9453125 167.5703125 C517.17271592 183.62404928 506.31142947 200.26017012 496 218 C495.57944336 218.71800781 495.15888672 219.43601563 494.72558594 220.17578125 C484.06719637 238.53565448 476.64649902 258.90171287 470 279 C469.48953125 278.38253906 468.9790625 277.76507813 468.453125 277.12890625 C453.5690689 259.79056431 433.623492 249.59848328 411 247 C388.4675715 245.46667885 367.09761464 249.39718063 349.5 264.375 C347.10413431 266.55384887 345.23881307 268.57557595 343.64676678 271.40499699 C339.54075036 278.42934443 339.54075036 278.42934443 335.50083518 279.92562842 C332.43712011 280.26687953 329.5079494 280.2934228 326.42599487 280.21359253 C325.26537383 280.22339807 324.10475279 280.2332036 322.90896142 280.24330628 C319.69895863 280.26048892 316.49295259 280.2330368 313.28335619 280.18656301 C309.81758181 280.14738894 306.35206184 280.1662242 302.88615417 280.17808533 C296.88250242 280.19090148 290.87986574 280.16765553 284.87639999 280.12023544 C276.18245198 280.05197452 267.48921149 280.04292475 258.79503395 280.04888131 C244.67013002 280.0573296 230.54565711 280.02414133 216.42089844 279.96191406 C202.73438831 279.90176092 189.04793914 279.85106576 175.36132812 279.8203125 C174.51922369 279.81841065 173.67711926 279.8165088 172.80949651 279.81454931 C163.60487534 279.79425035 154.40026016 279.7791405 145.19561958 279.7715168 C144.38519246 279.77084197 143.57476533 279.77016714 142.73977981 279.76947186 C139.49868074 279.76687825 136.25758188 279.76439596 133.01648225 279.76263489 C123.54923003 279.7574418 114.08236009 279.73613114 104.61523898 279.68496449 C98.67034354 279.6533788 92.72550887 279.63519672 86.78053503 279.62729625 C83.35601525 279.62212067 79.93185634 279.61027373 76.50745583 279.58038521 C72.78339434 279.55117518 69.06006504 279.54689096 65.33590698 279.54830933 C63.73648925 279.5264369 63.73648925 279.5264369 62.10476005 279.50412261 C47.67117282 279.57926352 35.32245099 284.79647626 24.8125 294.5625 C15.01771788 304.78917803 10.67494193 316.48249583 10.74273109 330.40989113 C10.73747198 331.79009354 10.73747198 331.79009354 10.73210663 333.19817883 C10.72280558 336.28026124 10.72771266 339.36215417 10.73257446 342.44424438 C10.72883755 344.67681449 10.72423587 346.90938329 10.71884382 349.14195001 C10.70660339 355.27651461 10.70687553 361.41102472 10.70923257 367.54559875 C10.70959858 373.482457 10.70061788 379.41929927 10.69200679 385.35614967 C10.6726715 398.9988287 10.66703873 412.64149269 10.66589268 426.28418382 C10.66497327 436.82163392 10.66085493 447.35907814 10.65449142 457.89652634 C10.6526963 460.93074587 10.65091668 463.96496542 10.64914167 466.99918497 C10.64869957 467.7535255 10.64825748 468.50786604 10.64780198 469.28506538 C10.63549444 490.50196129 10.62760076 511.71885515 10.62848854 532.93575478 C10.6285197 533.73558385 10.62855086 534.53541292 10.62858296 535.35947924 C10.62874917 539.41325087 10.62894725 543.46702249 10.62915237 547.52079411 C10.62919226 548.32587193 10.62923215 549.13094974 10.62927325 549.96042386 C10.62935413 551.58848795 10.62943772 553.21655205 10.62952404 554.84461614 C10.63074924 580.16840639 10.61574157 605.49214305 10.58837891 630.81591797 C10.55764141 659.27470518 10.54044744 687.73345719 10.54230535 716.19226205 C10.54245461 719.22836773 10.54255202 722.2644734 10.54261398 725.30057907 C10.54263729 726.04813071 10.5426606 726.79568234 10.54268462 727.56588706 C10.5427461 739.58358534 10.52998719 751.60123702 10.51274945 763.61892145 C10.49577531 775.70300623 10.49383303 787.78702302 10.5069681 799.87111314 C10.51369762 806.41456319 10.51361021 812.95787866 10.4962616 819.50131607 C10.48053163 825.49596922 10.48339421 831.49032031 10.50082986 837.48496608 C10.50389988 839.64916227 10.50026737 841.81338098 10.48910971 843.97755058 C10.40105011 862.27532622 12.26560028 877.51982388 25.125 891.6875 C39.2605383 904.78412346 55.18552808 907.61982758 73.66635132 907.48101807 C75.41497758 907.48276584 77.16360281 907.48627451 78.9122225 907.49137473 C83.68079086 907.50025819 88.44899532 907.48440306 93.21751738 907.46426249 C98.37341962 907.44690558 103.52930318 907.45283999 108.68522644 907.45587158 C117.60610141 907.45796375 126.52685889 907.44546857 135.44770432 907.42292023 C148.34555379 907.39034091 161.24334676 907.37998714 174.14123292 907.37496826 C195.06977338 907.36622491 215.99825129 907.33963539 236.92675781 907.30175781 C257.25064787 907.26501287 277.57452091 907.23671326 297.8984375 907.21972656 C299.15228451 907.21867567 300.40613152 907.21762477 301.69797389 907.21654204 C307.9884789 907.21132169 314.27898403 907.20626691 320.56948924 907.20129442 C372.71303604 907.15986228 424.85651496 907.08944001 477 907 C477.05868256 907.61909744 477.11736511 908.23819489 477.17782593 908.87605286 C477.30128891 910.09333321 477.30128891 910.09333321 477.42724609 911.33520508 C477.50655365 912.13992752 477.58586121 912.94464996 477.66757202 913.77375793 C478.61103479 920.09204834 483.96704725 925.74229553 488.84765625 929.59765625 C514.77461413 946.49017509 554.7074184 947.59729216 584.3046875 941.52734375 C599.79579859 938.14336317 613.04848332 932.75636502 625 922 C625.67289063 921.43152344 626.34578125 920.86304688 627.0390625 920.27734375 C640.47914928 908.09559179 646.28688199 890.68380915 652 874 C658.84013374 875.69147668 665.66428791 877.43059526 672.47265625 879.24560547 C690.48278318 884.350072 690.48278318 884.350072 709 886 C708.50371094 886.55945313 708.00742187 887.11890625 707.49609375 887.6953125 C697.53222636 899.45532297 691.74581043 911.38445668 693 927 C695.33084969 937.28237694 700.82722615 945.12431171 709.265625 951.33984375 C714.84334016 954.72631367 720.86896164 956.85798451 727 959 C728.53140625 959.57234375 728.53140625 959.57234375 730.09375 960.15625 C766.45974723 972.27824908 816.95929818 970.3080052 852 954 C883.20413134 938.06038964 902.40820188 908.52197647 913 876 C915.74161307 866.99549773 918.17159138 857.90535651 920.58056641 848.80737305 C921.54301382 845.27855182 922.56156355 842.77095052 925 840 C927.76010083 841.07509546 930.46651219 842.21194628 933.1640625 843.4375 C948.2334051 850.24081494 960.99599044 851.59245492 977 847 C985.82081408 843.66008011 992.41187069 838.67092447 999 832 C999.56332031 831.45859375 1000.12664063 830.9171875 1000.70703125 830.359375 C1008.70522693 822.0024212 1013.1820396 810.3770855 1014 799 C1014.08121094 797.96230469 1014.16242187 796.92460938 1014.24609375 795.85546875 C1014.81665697 781.55680871 1010.00650849 768.45208924 1000.8984375 757.46484375 C991.82634597 747.86381402 979.1871635 740.78180902 966 739 C964.07088265 738.95056081 962.14061019 738.93576663 960.2109375 738.953125 C959.2317334 738.95989258 958.2525293 738.96666016 957.24365234 738.97363281 C956.50324707 738.98233398 955.7628418 738.99103516 955 739 C955.02356567 737.97737061 955.02356567 737.97737061 955.04760742 736.93408203 C956.47452428 664.76941743 932.06858994 595.05961705 907.4375 528.1875 C907.15394653 527.41756714 906.87039307 526.64763428 906.57824707 525.85437012 C905.76250614 523.64515622 904.94302388 521.43738694 904.12109375 519.23046875 C903.8640567 518.53901764 903.60701965 517.84756653 903.3421936 517.13516235 C902.03247439 513.64287102 900.67288467 510.1806979 899.23095703 506.74072266 C898.94656265 506.05657791 898.66216827 505.37243317 898.36915588 504.66755676 C897.58575924 502.79663237 896.78764025 500.93189191 895.98852539 499.06762695 C894.61639934 494.80959687 894.61639934 494.80959687 896 492 C898.36429884 490.19183183 900.68379976 488.59009455 903.1875 487 C911.37007876 481.58870296 918.76135289 475.60909927 926 469 C926.87011719 468.21367187 927.74023438 467.42734375 928.63671875 466.6171875 C940.53864942 455.30939507 950.25365452 441.43072062 958 427 C958.3707666 426.31309082 958.7415332 425.62618164 959.12353516 424.91845703 C973.88373682 397.03947366 980.42071451 365.49832714 980.26074219 334.11914062 C980.25003818 331.63386486 980.26070266 329.14931637 980.2734375 326.6640625 C980.28745235 312.00697089 979.21701364 297.48052656 975.8125 283.1875 C975.60471924 282.28950684 975.39693848 281.39151367 975.18286133 280.46630859 C972.77083133 270.43959148 969.46293032 260.70581164 966 251 C966.66604248 250.80736572 967.33208496 250.61473145 968.01831055 250.41625977 C987.93083855 244.56816735 1002.85588327 232.26202768 1012.91137695 214.15917969 C1016.17719201 208.00312909 1018.37230671 201.78055656 1020 195 C1020.22300781 194.15179688 1020.44601562 193.30359375 1020.67578125 192.4296875 C1025.35014368 172.65109274 1019.46368883 151.89132493 1009.6640625 134.62890625 C1006.8011965 130.1061156 1003.51491445 126.02895332 1000 122 C999.49210938 121.39671875 998.98421875 120.7934375 998.4609375 120.171875 C990.01315283 110.90097285 977.78990331 103.8930419 966 100 C964.63681641 99.52433594 964.63681641 99.52433594 963.24609375 99.0390625 C942.09666542 92.89981433 919.61778024 96.67778019 900.5859375 106.94140625 C890.59796537 112.55672806 880.39202 121.41197 874 131 C870.9617894 130.37346438 868.66915453 129.37244653 866.015625 127.77734375 C865.25411133 127.32536621 864.49259766 126.87338867 863.70800781 126.40771484 C862.49129395 125.6799585 862.49129395 125.6799585 861.25 124.9375 C816.90037757 98.94495489 766.06231226 86.50630646 714.75 86.6875 C713.34347672 86.6877417 713.34347672 86.6877417 711.90853882 86.68798828 C698.05649602 86.70453738 684.62571135 87.29098283 671 90 C670.86464844 88.75669922 670.86464844 88.75669922 670.7265625 87.48828125 C669.85827315 83.31955873 668.3022949 79.95954271 666.375 76.1875 C665.83649414 75.12692383 665.83649414 75.12692383 665.28710938 74.04492188 C662.4082171 68.51562084 659.19414212 63.63317259 655 59 C654.14728516 58.01 654.14728516 58.01 653.27734375 57 C640.74412844 43.37578294 622.48256597 35.44750648 604.1171875 34.62890625 C591.452673 34.38143063 580.71598634 34.95229613 569 40 Z " fill="#FEFEFE" transform="translate(0,0)"/>
<path d="M0 0 C1.45183354 -0.00298657 1.45183354 -0.00298657 2.93299705 -0.00603348 C3.98844362 -0.00312064 5.0438902 -0.0002078 6.13132 0.00279331 C7.25856902 0.00193889 8.38581805 0.00108446 9.54722613 0.00020415 C13.33208399 -0.00144563 17.11689773 0.00406256 20.90175152 0.00952244 C23.61181447 0.01036105 26.32187655 0.00969037 29.03193951 0.00907993 C34.87046867 0.00855568 40.70898666 0.01169224 46.54751301 0.01731777 C54.98903337 0.02544604 63.43054833 0.02804936 71.87207218 0.02930576 C85.56800351 0.03149419 99.26392889 0.03814862 112.95985699 0.04760838 C126.26389314 0.05678789 139.56792768 0.06386609 152.87196636 0.06811619 C153.69207653 0.06837891 154.51218669 0.06864164 155.35714868 0.06891232 C159.4714151 0.07021736 163.58568152 0.07148107 167.69994795 0.07272422 C201.82996424 0.08309033 235.95997345 0.10070298 270.08998394 0.12304783 C270.16889874 1.64502781 270.16889874 1.64502781 270.24940777 3.19775486 C270.32742686 4.55047692 270.40581567 5.90317769 270.48451519 7.25586033 C270.5180711 7.92206394 270.55162701 8.58826756 270.58619976 9.27465916 C271.18704288 19.23584515 274.98348126 27.34982913 281.08998394 35.12304783 C281.86535503 36.1227158 281.86535503 36.1227158 282.65639019 37.14257908 C292.30127735 48.08208196 309.84148333 55.4438767 324.08998394 57.12304783 C329.13934667 57.20895827 334.18790861 57.09749609 339.23646832 56.9960947 C344.974165 56.93524577 349.57958516 57.3648399 355.08998394 59.12304783 C369.83861422 60.52148466 380.53872744 57.10521217 392.08998394 48.12304783 C393.63087089 46.97616617 395.17247729 45.83025013 396.71498394 44.68554783 C397.84125321 43.83305547 398.96677729 42.97957134 400.08998394 42.12304783 C400.17635113 43.26257908 400.26271832 44.40211033 400.35170269 45.57617283 C403.44099926 81.91809883 418.06074804 112.81412167 443.08998394 139.12304783 C443.710023 139.80754002 444.33006207 140.4920322 444.96889019 141.19726658 C448.12045595 144.56034682 451.22828278 147.26687158 455.17761517 149.649827 C467.95594508 157.66668305 467.95594508 157.66668305 469.59245586 164.64639378 C470.26171546 169.91220076 470.00798464 175.13703429 469.75014019 180.42382908 C469.7183668 182.35570199 469.69419916 184.28771346 469.67724895 186.21977329 C469.61283231 191.26566918 469.44636968 196.30302495 469.2572813 201.34558201 C469.0822449 206.50655649 469.00549972 211.66893489 468.92006207 216.8320322 C468.73863053 226.93275734 468.4491695 237.02718834 468.08998394 247.12304783 C467.54583843 247.31807896 467.00169292 247.51311008 466.44105816 247.71405125 C463.94722204 248.61106071 461.4561141 249.51542707 458.96498394 250.41992283 C458.10904644 250.72655857 457.25310894 251.03319431 456.37123394 251.34912205 C440.47661631 257.14148751 427.9239116 267.98883882 420.08998394 283.12304783 C412.97596808 299.41784257 412.896524 317.59391256 419.26869488 334.15039158 C428.28833968 355.81469895 444.54712887 367.28359622 465.08998394 377.12304783 C465.74998394 377.45304783 466.40998394 377.78304783 467.08998394 378.12304783 C467.16010513 401.95820993 467.21298739 425.79335655 467.24542046 449.62860107 C467.26088082 460.69603965 467.28195452 471.76341409 467.3163023 482.8308115 C467.34623002 492.47860398 467.36556498 502.12635001 467.37224942 511.77418762 C467.37615595 516.8813261 467.38531964 521.98833168 467.40717411 527.09542751 C467.42759249 531.90607203 467.43380691 536.71652936 467.42930698 541.5272131 C467.43012979 543.28919334 467.43606347 545.05118008 467.44760036 546.81312275 C467.52952391 559.9743673 466.69759728 570.19767296 457.08998394 580.12304783 C446.04071977 589.69212756 432.91380251 589.56245564 419.06117535 589.51072788 C417.23635627 589.51490529 415.41153979 589.52038504 413.5867281 589.52704769 C408.59326991 589.54146727 403.59997727 589.5372685 398.60651016 589.52988088 C393.21310736 589.52514295 387.81974005 589.53766451 382.42634869 589.54789829 C371.86897593 589.56507863 361.31166272 589.56592798 350.75427961 589.56068539 C342.17291727 589.55664148 333.5915725 589.55808987 325.01021099 589.56343365 C323.177146 589.56455628 323.177146 589.56455628 321.30704939 589.56570159 C318.82437531 589.56723309 316.34170123 589.56877144 313.85902715 589.57031656 C290.58720896 589.58403852 267.31542441 589.57860576 244.043607 589.56713135 C222.75743249 589.55719655 201.47134487 589.57014447 180.18518376 589.59406554 C158.32016342 589.61845176 136.45518355 589.62806575 114.59014988 589.62141281 C102.3178724 589.61791989 90.04566178 589.62015768 77.77339458 589.63766384 C67.32782639 589.65237969 56.88237214 589.65302911 46.4368062 589.63559293 C41.10884457 589.62707608 35.78108654 589.62495036 30.45313549 589.64024448 C25.57268337 589.65408054 20.69260951 589.64934215 15.81217933 589.63000525 C14.04987565 589.62624169 12.28754175 589.62917746 10.52526498 589.6396169 C-2.5133095 589.7113427 -14.03502439 588.52161446 -23.91001606 579.12304783 C-30.83270709 571.53955447 -33.37166901 563.89220054 -33.29033279 553.7800703 C-33.29499271 552.86717885 -33.29965263 551.95428739 -33.30445376 551.01373255 C-33.31639994 547.95624346 -33.30700962 544.89919904 -33.29769611 541.84170628 C-33.30186918 539.62690822 -33.30734655 537.41211229 -33.31401592 535.19732034 C-33.3284927 529.11201361 -33.32421877 523.02684205 -33.31684911 516.94152784 C-33.31261046 511.05243628 -33.32242428 505.16337899 -33.33175673 499.27429576 C-33.35142234 486.48595556 -33.35377125 473.6976559 -33.34856153 460.90930419 C-33.34400418 449.71675642 -33.34460376 438.52422469 -33.35040188 427.33167744 C-33.35115874 425.83026548 -33.35191473 424.32885352 -33.35266982 422.82744157 C-33.35381502 420.56493901 -33.3549649 418.30243646 -33.35612907 416.03993391 C-33.36683408 395.00522187 -33.37155931 373.97051518 -33.36365891 352.93580151 C-33.36336173 352.14288586 -33.36306456 351.34997021 -33.36275838 350.53302682 C-33.36030945 344.09401776 -33.35769786 337.65500876 -33.35507425 331.21599977 C-33.34497212 306.10035498 -33.35332656 280.98477704 -33.37656879 255.86914158 C-33.40264157 227.64917414 -33.41548926 199.42924695 -33.40838104 171.20926702 C-33.40766499 168.2001946 -33.4069906 165.19112218 -33.4063406 162.18204975 C-33.40608589 161.07069139 -33.40608589 161.07069139 -33.40582603 159.93688134 C-33.40352316 148.75325127 -33.41149945 137.56965857 -33.42463207 126.38603687 C-33.43954118 113.6669208 -33.44038938 100.94789233 -33.42256116 88.22877814 C-33.41403288 81.73847106 -33.41194643 75.24833127 -33.42721272 68.7580328 C-33.44101499 62.81662775 -33.4363538 56.875534 -33.41697348 50.93414716 C-33.41319948 48.78482917 -33.41617553 46.6354865 -33.42658513 44.48619039 C-33.43973616 41.56298827 -33.42818809 38.64086355 -33.41058731 35.71770763 C-33.42023782 34.88473105 -33.42988833 34.05175446 -33.43983129 33.19353616 C-33.31579086 23.14902775 -29.25271864 15.4994238 -22.41782856 8.32617283 C-15.90800217 2.60725993 -8.60745186 -0.00392139 0 0 Z " fill="#BEC5CE" transform="translate(62.91001605987549,298.8769521713257)"/>
<path d="M0 0 C0.50660156 0.40508789 1.01320313 0.81017578 1.53515625 1.22753906 C14.3212525 11.52395932 25.97789277 22.97885311 36 36 C36.70125 36.88429688 37.4025 37.76859375 38.125 38.6796875 C72.81555621 83.40572604 89.28130427 140.34294361 82.8125 196.625 C78.07354661 233.78114181 64.03609105 265.99817857 38 293 C37.29617188 293.76699219 36.59234375 294.53398437 35.8671875 295.32421875 C24.83168416 307.01010347 11.21070654 315.70066149 -3 323 C-3.6604834 323.34514648 -4.3209668 323.69029297 -5.00146484 324.04589844 C-16.86022708 330.18123086 -29.17512684 334.35651507 -42 338 C-42.74217773 338.21140625 -43.48435547 338.4228125 -44.24902344 338.640625 C-118.29500558 359.15312918 -205.25159103 342.14289845 -318.41503906 295.63574219 C-328.0820988 290.0348919 -337.28953295 284.00883209 -346 277 C-346.52400391 276.58282715 -347.04800781 276.1656543 -347.58789062 275.73583984 C-359.0491784 266.56205108 -369.09486744 256.46063267 -377 244 C-377.58394531 243.08863281 -378.16789062 242.17726563 -378.76953125 241.23828125 C-398.75082334 208.6326434 -399.99985467 168.40280616 -391.28466797 132.01318359 C-385.90385477 110.68767827 -377.34274714 90.37640762 -367 71 C-366.62407715 70.28682617 -366.2481543 69.57365234 -365.86083984 68.83886719 C-337.24094239 14.78556926 -291.79973156 -24.79125468 -233.11010742 -42.84667969 C-221.21029398 -46.37382138 -209.26591311 -49.11236851 -197 -51 C-196.26136719 -51.11714355 -195.52273438 -51.23428711 -194.76171875 -51.35498047 C-128.20183079 -61.44390042 -52.39975212 -42.06535656 0 0 Z " fill="#FEFEFE" transform="translate(878,159)"/>
<path d="M0 0 C1.10472153 -0.01268417 2.20944305 -0.02536835 3.34764099 -0.03843689 C4.53624222 -0.03550125 5.72484344 -0.03256561 6.94946289 -0.02954102 C8.78765343 -0.03740379 8.78765343 -0.03740379 10.66297913 -0.04542542 C13.25447838 -0.05184872 15.84600677 -0.05050468 18.4375 -0.04199219 C22.40360433 -0.03348697 26.36826667 -0.06223493 30.33422852 -0.09399414 C32.85180621 -0.09560632 35.36938645 -0.0950283 37.88696289 -0.09204102 C39.07353989 -0.10327499 40.26011688 -0.11450897 41.48265076 -0.12608337 C49.64853077 -0.05693856 49.64853077 -0.05693856 53.66430664 2.15722656 C59.79701069 9.72687186 59.41232104 21.36676334 60.21313477 30.65405273 C60.32206055 31.72397461 60.43098633 32.79389648 60.54321289 33.89624023 C60.62885498 34.85900879 60.71449707 35.82177734 60.80273438 36.8137207 C61.66187648 40.07741485 62.86201057 41.3168356 65.48461914 43.40405273 C67.58518306 44.45799519 67.58518306 44.45799519 69.86352539 45.11499023 C70.6973877 45.38754639 71.53125 45.66010254 72.39038086 45.94091797 C73.26710449 46.21750244 74.14382813 46.49408691 75.04711914 46.77905273 C81.88883273 49.03034384 88.0922519 51.42867372 94.19555664 55.33764648 C97.1944593 56.73474619 99.20877031 56.80177328 102.48461914 56.40405273 C104.85612288 55.11782667 104.85612288 55.11782667 106.98461914 53.15405273 C107.83282227 52.43475586 108.68102539 51.71545898 109.55493164 50.97436523 C110.52172852 50.12616211 111.48852539 49.27795898 112.48461914 48.40405273 C114.31578527 46.81514204 116.14991993 45.22978303 117.98657227 43.6472168 C119.21670918 42.58447599 120.44214575 41.51626523 121.66235352 40.44213867 C126.3238856 36.38115584 129.78407719 33.77916717 136.29309082 33.9644165 C144.03810981 35.51812262 150.45132858 42.94810368 155.76586914 48.35717773 C156.50542847 49.09861023 157.24498779 49.84004272 158.00695801 50.60394287 C159.55318427 52.1568406 161.09583488 53.71330628 162.63500977 55.27319336 C164.99888667 57.66851002 167.37353454 60.05272471 169.75024414 62.43530273 C171.25608285 63.95030143 172.76131359 65.46590472 174.26586914 66.98217773 C174.97618286 67.69674133 175.68649658 68.41130493 176.41833496 69.14752197 C177.06991577 69.80871033 177.72149658 70.46989868 178.39282227 71.15112305 C178.96746216 71.73259094 179.54210205 72.31405884 180.13415527 72.91314697 C182.91024968 75.97794215 183.01156114 78.92596045 182.94165039 82.92358398 C182.0514143 87.7552072 178.68163727 90.84448616 175.48461914 94.40405273 C174.06624539 96.07030761 172.65995423 97.74635353 171.25341797 99.42260742 C169.85535055 101.08481935 168.44666979 102.73742265 167.03540039 104.38842773 C166.19364258 105.38358398 165.35188477 106.37874023 164.48461914 107.40405273 C163.72793945 108.28448242 162.97125977 109.16491211 162.19165039 110.07202148 C160.22079017 112.76447812 159.79576778 114.7396945 159.96899414 118.06811523 C160.84222907 122.02413409 162.84831489 125.36013809 164.76977539 128.90014648 C167.09200959 133.64512161 168.68942412 138.5650133 170.21557617 143.61669922 C170.43971191 144.30965088 170.66384766 145.00260254 170.89477539 145.71655273 C171.08177002 146.33143555 171.26876465 146.94631836 171.46142578 147.57983398 C173.01235074 150.34492855 174.83660266 151.68003959 177.48461914 153.40405273 C180.73418788 154.24432563 180.73418788 154.24432563 184.28930664 154.52905273 C186.24803711 154.75334961 186.24803711 154.75334961 188.24633789 154.98217773 C189.61723988 155.12466004 190.9883376 155.26527087 192.35961914 155.40405273 C210.85592695 157.28577837 210.85592695 157.28577837 216.62890625 163.83764648 C219.54340604 168.39616997 219.03705946 173.48064092 218.98071289 178.71655273 C218.98216812 179.80363525 218.98362335 180.89071777 218.98512268 182.01074219 C218.98346649 184.30365689 218.97193668 186.59658302 218.95117188 188.8894043 C218.92221741 192.39216501 218.93056996 195.89341125 218.94360352 199.39624023 C218.93736564 201.6280184 218.92897432 203.8597918 218.91821289 206.09155273 C218.92114853 207.13545166 218.92408417 208.17935059 218.92710876 209.25488281 C218.85739271 214.64795535 218.76511305 218.88963543 215.48461914 223.40405273 C211.36793883 226.82621333 208.07508253 227.97364292 202.80102539 228.56420898 C201.54354492 228.71825195 200.28606445 228.87229492 198.99047852 229.03100586 C197.03851563 229.24660156 197.03851563 229.24660156 195.04711914 229.46655273 C190.1750886 230.02079764 185.32696868 230.63021389 180.48461914 231.40405273 C179.73067871 231.51563721 178.97673828 231.62722168 178.19995117 231.7421875 C176.06476759 232.19603968 176.06476759 232.19603968 173.48461914 234.40405273 C171.24130878 238.51037893 169.74106474 242.79556668 168.23461914 247.21655273 C167.39839027 249.55722404 166.55991924 251.89709577 165.71899414 254.23608398 C165.3603125 255.27482666 165.00163086 256.31356934 164.63208008 257.38378906 C163.48461914 260.40405273 163.48461914 260.40405273 161.87573242 263.60229492 C160.21696945 266.94310993 159.88119651 268.72125908 160.48461914 272.40405273 C162.04417242 274.66036461 163.50721109 276.48648786 165.35961914 278.46655273 C166.36741633 279.5970627 167.37255559 280.72994679 168.37524414 281.86499023 C168.89022461 282.44345703 169.40520508 283.02192383 169.93579102 283.61791992 C172.44863467 286.51577052 174.78337514 289.5432378 177.10961914 292.59155273 C177.74746338 293.42021851 177.74746338 293.42021851 178.39819336 294.265625 C182.04815264 299.0474767 183.25272766 302.32797043 182.48461914 308.40405273 C178.78048259 316.14906552 171.11742423 322.15596593 164.70336914 327.66967773 C159.33825644 332.32908732 154.43846191 337.43512143 149.48852539 342.52709961 C148.77051758 343.25606445 148.05250977 343.9850293 147.31274414 344.73608398 C146.67240234 345.39326416 146.03206055 346.05044434 145.37231445 346.72753906 C141.78233619 349.91589664 138.53773892 351.00462594 133.66821289 350.82592773 C125.88007454 349.32124269 119.30334352 341.82067484 113.53295898 336.71948242 C107.3140431 330.93903046 107.3140431 330.93903046 99.60180664 327.92749023 C95.48269717 328.55722877 92.29271734 330.13878991 88.60961914 332.02905273 C82.03370279 335.2869591 75.441124 338.0635646 68.48706055 340.41235352 C64.91371885 341.66453452 63.65609075 342.14684532 61.48461914 345.40405273 C60.98077645 348.17526878 60.98077645 348.17526878 60.73852539 351.32202148 C60.6231543 352.49442383 60.5077832 353.66682617 60.38891602 354.87475586 C60.16286514 357.33289766 59.93887279 359.79122972 59.71704102 362.24975586 C58.26685782 376.90381697 58.26685782 376.90381697 53.54711914 382.84155273 C50.10091552 385.45231306 46.76711466 385.53164091 42.53588867 385.56518555 C41.55451935 385.57479309 40.57315002 385.58440063 39.56204224 385.59429932 C37.98070999 385.60067413 37.98070999 385.60067413 36.36743164 385.60717773 C35.27751923 385.61287781 34.18760681 385.61857788 33.06466675 385.62445068 C30.75983651 385.63389206 28.45499283 385.64043124 26.15014648 385.64428711 C22.62988703 385.65399683 19.11021047 385.68503072 15.59008789 385.71655273 C13.34920594 385.72308271 11.10831981 385.7283332 8.86743164 385.73217773 C7.81725861 385.74452454 6.76708557 385.75687134 5.68508911 385.76959229 C0.19463688 385.75290926 -3.79156622 385.54093839 -8.51538086 382.40405273 C-11.40024934 379.46322776 -12.00113911 377.00013642 -12.51538086 372.96655273 C-12.67522461 371.83475586 -12.83506836 370.70295898 -12.99975586 369.53686523 C-13.41020422 366.36941296 -13.75313626 363.19691084 -14.09350586 360.02124023 C-14.20436523 359.08465576 -14.31522461 358.14807129 -14.42944336 357.18310547 C-14.65055477 355.31281788 -14.84910431 353.43970215 -15.02319336 351.56445312 C-15.68081026 346.10457504 -15.68081026 346.10457504 -19.15209961 341.96264648 C-22.74184385 340.29910647 -26.34195457 338.8210511 -30.07788086 337.52905273 C-36.50850585 335.24159926 -42.49802524 332.5813522 -48.55053711 329.40795898 C-52.41414475 328.0997282 -54.58456936 328.32415946 -58.51538086 329.40405273 C-61.00089163 330.85366722 -63.13999758 332.60514992 -65.32788086 334.46655273 C-65.93100098 334.95953857 -66.53412109 335.45252441 -67.15551758 335.96044922 C-68.95173376 337.4304489 -70.73359972 338.91661759 -72.51538086 340.40405273 C-74.38618623 341.930043 -76.26062151 343.45160594 -78.14038086 344.96655273 C-78.89577148 345.5865918 -79.65116211 346.20663086 -80.42944336 346.84545898 C-84.84543812 350.14505057 -87.94054517 350.97098518 -93.51538086 350.40405273 C-99.30536061 347.60171117 -103.37368657 343.94857987 -107.83959961 339.37280273 C-108.50828568 338.69987183 -109.17697174 338.02694092 -109.86592102 337.33361816 C-111.98544368 335.19742098 -114.09426739 333.0510134 -116.20288086 330.90405273 C-117.62991481 329.46195304 -119.0576429 328.02053988 -120.48608398 326.57983398 C-123.66681562 323.3694359 -126.84130785 320.15304944 -130.00765991 316.9284668 C-131.28026008 315.64177671 -132.57124037 314.37330402 -133.86621094 313.10913086 C-136.86054981 310.01328146 -137.49593142 307.41542379 -137.57788086 303.15405273 C-136.07528403 297.8507698 -133.05410718 294.5490413 -129.51538086 290.40405273 C-127.22724096 287.62418086 -124.94889086 284.83665249 -122.67553711 282.04467773 C-121.32584984 280.39478877 -119.96098246 278.75706869 -118.57397461 277.13842773 C-117.7405957 276.12522461 -117.7405957 276.12522461 -116.89038086 275.09155273 C-116.40311523 274.51791992 -115.91584961 273.94428711 -115.41381836 273.35327148 C-114.04672826 270.38728035 -114.68845485 268.52503155 -115.51538086 265.40405273 C-116.51141177 263.0827245 -117.58115315 260.79231792 -118.70288086 258.52905273 C-121.72920174 252.32352688 -124.25240387 246.04541461 -126.47314453 239.50805664 C-127.74165008 235.91161437 -128.24033946 234.58741367 -131.51538086 232.40405273 C-133.62045135 232.00391241 -135.74339633 231.69489743 -137.87084961 231.43920898 C-139.13348633 231.2787207 -140.39612305 231.11823242 -141.69702148 230.95288086 C-144.3476291 230.62889248 -146.99890349 230.31072221 -149.65014648 229.99194336 C-166.08483861 227.89691658 -166.08483861 227.89691658 -170.95288086 222.90405273 C-173.14802484 219.39182237 -173.64499457 216.73314108 -173.69238281 212.67651367 C-173.70521805 211.71831726 -173.71805328 210.76012085 -173.73127747 209.77288818 C-173.7386644 208.73851624 -173.74605133 207.70414429 -173.75366211 206.63842773 C-173.76173386 205.57166809 -173.7698056 204.50490845 -173.77812195 203.40582275 C-173.79195792 201.14629744 -173.80268225 198.88675126 -173.81054688 196.62719727 C-173.82774479 193.18131607 -173.87163472 189.73639801 -173.91577148 186.29077148 C-173.92589996 184.09416395 -173.93441558 181.89754826 -173.94116211 179.70092773 C-173.9586702 178.67465271 -173.97617828 177.64837769 -173.99421692 176.59100342 C-173.97526085 170.30072024 -173.27218379 166.51272747 -169.51538086 161.40405273 C-162.59469279 156.06935568 -154.33254589 155.79703457 -145.87866211 154.91186523 C-145.07533447 154.82694824 -144.27200684 154.74203125 -143.44433594 154.65454102 C-141.85003721 154.49012746 -140.2547966 154.33455773 -138.65869141 154.1887207 C-133.29858449 153.65645373 -133.29858449 153.65645373 -128.51538086 151.40405273 C-127.34340975 149.53844933 -127.34340975 149.53844933 -126.58569336 147.29077148 C-126.10894165 146.04565796 -126.10894165 146.04565796 -125.62255859 144.77539062 C-125.29843994 143.88972412 -124.97432129 143.00405762 -124.64038086 142.09155273 C-123.94954895 140.27003157 -123.25552824 138.44971667 -122.55834961 136.63061523 C-122.21723145 135.73890625 -121.87611328 134.84719727 -121.5246582 133.9284668 C-119.75545173 129.50331079 -117.6225655 125.27287265 -115.44897461 121.03295898 C-114.33538855 117.89721246 -114.42163964 116.52690663 -115.51538086 113.40405273 C-119.73115823 106.37024236 -125.30939431 100.11529164 -130.74536133 93.99584961 C-134.36211413 89.85271495 -137.14893814 85.91680279 -137.95288086 80.40405273 C-136.92259218 73.33921608 -130.75794299 68.32599299 -125.93334961 63.48608398 C-125.20094559 62.74702316 -124.46854156 62.00796234 -123.71394348 61.24650574 C-122.16918961 59.69166289 -120.62174508 58.13948914 -119.07177734 56.58984375 C-116.71050408 54.2241901 -114.36569674 51.84299936 -112.02124023 49.46069336 C-110.51375891 47.94734452 -109.00532654 46.43494232 -107.49584961 44.92358398 C-106.80081833 44.21418167 -106.10578705 43.50477936 -105.38969421 42.77388 C-100.53326571 37.96223553 -96.46387142 35.1765835 -89.64038086 33.84155273 C-81.32710121 35.33794307 -74.71020501 42.65387463 -68.56420898 48.08862305 C-62.34486216 53.86882466 -62.34486216 53.86882466 -54.63256836 56.88061523 C-50.51345889 56.25087669 -47.32347906 54.66931556 -43.64038086 52.77905273 C-37.06446451 49.52114637 -30.47188572 46.74454086 -23.51782227 44.39575195 C-19.94448057 43.14357095 -18.68685247 42.66126014 -16.51538086 39.40405273 C-15.90136431 36.78696693 -15.90136431 36.78696693 -15.51538086 33.77905273 C-15.3490918 32.63049805 -15.18280273 31.48194336 -15.01147461 30.29858398 C-14.65809955 27.52445067 -14.33580783 24.75920872 -14.05053711 21.97827148 C-13.97125977 21.2294873 -13.89198242 20.48070312 -13.81030273 19.70922852 C-13.65870697 18.24645674 -13.51757806 16.78255109 -13.38842773 15.31762695 C-12.83906412 9.98653183 -11.77271275 5.51003106 -7.75486755 1.76158142 C-4.97910835 0.07897587 -3.23394351 0.0179972 0 0 Z " fill="#1B2939" transform="translate(249.515380859375,392.595947265625)"/>
<path d="M0 0 C0.66 0 1.32 0 2 0 C31.08430384 74.25269628 56.84091617 164.10005876 24.72265625 241.26953125 C21.53590376 248.3686174 17.75184519 255.18831662 14 262 C13.34 262 12.68 262 12 262 C11.91024902 261.24605957 11.82049805 260.49211914 11.72802734 259.71533203 C8.13031088 230.28395043 1.55101756 203.29788799 -22.8125 184.125 C-42.87573348 169.99778779 -65.32162052 165.39859446 -89.50244141 168.30029297 C-115.58239803 172.83468188 -135.93884317 189.00667102 -151 210 C-163.84065973 228.26401354 -172.44510503 249.25003435 -172.1953125 271.8203125 C-172.1924826 272.80498505 -172.18965271 273.78965759 -172.18673706 274.8041687 C-172.17565195 277.91124261 -172.15056991 281.01801504 -172.125 284.125 C-172.11495509 286.24739163 -172.1058319 288.36978784 -172.09765625 290.4921875 C-172.07575099 295.66157231 -172.04130328 300.83073526 -172 306 C-182.30854753 305.57285488 -192.14019326 304.51182638 -202.25 302.3125 C-203.50288818 302.0448584 -204.75577637 301.7772168 -206.04663086 301.50146484 C-258.6013789 290.00079759 -306.38639465 264.07905225 -336 218 C-339.18180742 212.76588726 -342.13597657 207.41338957 -345 202 C-345.36124969 201.42723328 -345.72249939 200.85446655 -346.09469604 200.26434326 C-347.38712343 197.03172815 -347.26197044 193.90428686 -347.22705078 190.47753906 C-347.22734283 189.72593002 -347.22763489 188.97432098 -347.22793579 188.19993591 C-347.22654519 185.72171384 -347.21099684 183.2437944 -347.1953125 180.765625 C-347.19158141 179.04498458 -347.18873489 177.32434203 -347.18673706 175.60369873 C-347.17910818 171.07942824 -347.15946608 166.55528656 -347.1373291 162.03106689 C-347.11685464 157.41265607 -347.10773192 152.7942244 -347.09765625 148.17578125 C-347.07621949 139.11713097 -347.04209251 130.0585762 -347 121 C-345.15698303 121.41232376 -345.15698303 121.41232376 -343.2767334 121.83297729 C-341.64478449 122.19712331 -340.01282597 122.56122625 -338.38085938 122.92529297 C-337.57340271 123.10605881 -336.76594604 123.28682465 -335.934021 123.47306824 C-277.80232619 136.42877541 -209.018042 136.33066147 -154.5 109.375 C-149.46454486 106.95318586 -144.26426833 105.69118282 -138.875 104.3125 C-100.93297697 94.46038501 -67.11554221 74.07003088 -39 47 C-38.14075928 46.17363037 -38.14075928 46.17363037 -37.26416016 45.33056641 C-23.10351113 31.62905758 -10.93372947 16.40059421 0 0 Z " fill="#FEFEFE" transform="translate(897,563)"/>
<path d="M0 0 C1.09590454 0.54926651 2.19180908 1.09853302 3.32092285 1.66444397 C4.77448324 2.39228714 6.22805652 3.12010459 7.68164062 3.84790039 C8.40208557 4.20907204 9.12253052 4.57024368 9.86480713 4.94235992 C59.5395792 29.80545204 113.07209835 43.4171654 168 50 C168.98129883 50.12149414 169.96259766 50.24298828 170.97363281 50.36816406 C218.70097971 56.10503568 272.62349219 53.67193175 317.01171875 34.1640625 C320.02630923 32.98975144 322.79931875 32.41268154 326 32 C331.31935078 43.74756924 335.87124057 55.7700868 340.21621704 67.90591431 C340.82230948 69.59429869 341.43362723 71.28081639 342.05014038 72.96542358 C342.9265037 75.366266 343.78225435 77.77350721 344.6328125 80.18359375 C344.90214096 80.91209534 345.17146942 81.64059692 345.44895935 82.39117432 C347.18484353 87.41515607 347.18484353 87.41515607 346.26904297 90.31274414 C345.85025879 90.86953857 345.43147461 91.42633301 345 92 C342.89866867 95.05031968 341.09446237 97.75751716 339.74609375 101.21875 C337.89135941 105.63630548 335.06119744 109.04200576 332 112.6875 C331.13060791 113.73732056 331.13060791 113.73732056 330.24365234 114.80834961 C325.02732011 121.06123321 319.64078067 127.12532004 314 133 C313.43555176 133.59167969 312.87110352 134.18335938 312.28955078 134.79296875 C304.26674498 143.15859265 296.03342236 150.85381238 286.703125 157.74121094 C285.03965069 158.97069396 283.39472448 160.22216212 281.75 161.4765625 C264.04048268 174.76726408 239.65239785 190.95167423 217.0625 192.625 C215.62583984 192.73714844 215.62583984 192.73714844 214.16015625 192.8515625 C213.09087891 192.92503906 213.09087891 192.92503906 212 193 C214.17258727 190.66793331 216.37864822 189.01791762 219.09765625 187.36328125 C219.89461914 186.87230957 220.69158203 186.38133789 221.51269531 185.87548828 C222.35413086 185.35970215 223.19556641 184.84391602 224.0625 184.3125 C231.09565134 179.93757878 237.7130032 175.41174823 244 170 C244.61617187 169.52691406 245.23234375 169.05382812 245.8671875 168.56640625 C251.73262183 163.96529887 256.66538278 157.66923443 260 151 C260.25 147.5 260.25 147.5 260 144 C258.14982601 141.78082808 258.14982601 141.78082808 255.40234375 141.4765625 C250.32616724 142.25751273 247.42757313 145.13556223 243.5625 148.375 C241.95489591 149.67178754 240.34417578 150.96472105 238.73046875 152.25390625 C237.9317334 152.89344238 237.13299805 153.53297852 236.31005859 154.19189453 C217.29724389 169.07341067 194.60945987 180.71266638 172 189 C171.32275879 189.24991699 170.64551758 189.49983398 169.94775391 189.75732422 C146.03294356 198.46114511 119.97876733 203.97319924 94.5 204.2734375 C93.51823792 204.28592026 92.53647583 204.29840302 91.52496338 204.31126404 C67.86875506 204.55341145 45.21076004 203.69379685 22 199 C20.42484619 198.68772461 20.42484619 198.68772461 18.81787109 198.36914062 C-3.63880652 193.7941524 -31.30694732 186.32616897 -45.125 166.5625 C-48.03543458 161.58104696 -49.29644511 157.68763016 -48 152 C-46.35435533 146.79517033 -43.50769781 142.60773649 -39.265625 139.16796875 C-35.39828678 137.17428922 -31.2811013 137.00237694 -26.98828125 136.71484375 C-23.81913961 136.22926864 -23.81913961 136.22926864 -21.60546875 133.63671875 C-19.72913158 131.06964976 -19.72913158 131.06964976 -20 127.875 C-21.17027509 124.51045913 -21.9823132 123.78787608 -25 122 C-34.37445298 120.30582175 -43.35493528 123.08862557 -51.0859375 128.4453125 C-52.89675311 129.89430639 -52.89675311 129.89430639 -55 132 C-55.66177789 123.06599847 -53.14985374 116.18621255 -47.375 109.3125 C-37.86218655 99.3792307 -25.29742846 92.56138629 -11.39501953 91.8034668 C-1.70300425 91.63470183 7.41920783 92.57668772 16.92816162 94.39346313 C20.72234669 95.11718657 24.52577557 95.78948636 28.328125 96.46875 C29.44929214 96.67090874 29.44929214 96.67090874 30.59310913 96.87715149 C36.99906832 98.02400303 43.41962636 98.98532603 49.875 99.8125 C50.72723145 99.92376221 51.57946289 100.03502441 52.45751953 100.1496582 C64.64563311 101.66504779 76.78795879 102.20497881 89.0625 102.1875 C89.78577484 102.18722809 90.50904968 102.18695618 91.25424194 102.18667603 C102.16203751 102.16789254 112.9268303 101.79181635 123.74462891 100.30761719 C126.04976784 99.99321201 128.35761293 99.71847218 130.66796875 99.4453125 C140.77074321 98.1694864 150.61256007 96.04804758 160.5 93.625 C161.65693359 93.34503174 162.81386719 93.06506348 164.00585938 92.77661133 C177.8405411 89.80523009 177.8405411 89.80523009 189 82 C189.50007794 78.45786015 189.50007794 78.45786015 189 75 C184.56994739 72.04663159 180.15366478 72.40389913 174.99023438 73.37988281 C172.8970921 73.92157541 170.8251106 74.51793914 168.75 75.125 C158.616829 77.87141103 148.3526642 79.58327059 138 81.25 C137.2009021 81.38037659 136.4018042 81.51075317 135.57849121 81.64508057 C107.47664418 86.21006341 78.04666406 87.20016073 49.87011719 82.62158203 C45.8014879 81.96811684 41.72834309 81.3518565 37.65324402 80.74031067 C28.46416396 79.3603773 19.27773589 77.96206821 10.09765625 76.5234375 C9.19471832 76.3849791 8.2917804 76.24652069 7.36148071 76.10386658 C1.11522374 75.11522374 1.11522374 75.11522374 0 74 C-0.09443335 71.69946165 -0.11742128 69.39597827 -0.11352539 67.09350586 C-0.11367142 66.37159561 -0.11381744 65.64968536 -0.1139679 64.90589905 C-0.11326869 62.50885053 -0.10547595 60.11187877 -0.09765625 57.71484375 C-0.0957921 56.05717511 -0.09436818 54.39950593 -0.09336853 52.74183655 C-0.08954312 48.37045786 -0.07971265 43.99911219 -0.06866455 39.62774658 C-0.05845092 35.17045539 -0.05387101 30.71315889 -0.04882812 26.25585938 C-0.0380904 17.50389107 -0.02101371 8.75194964 0 0 Z " fill="#3F4957" transform="translate(551,471)"/>
<path d="M0 0 C16.9508983 13.54191043 29.54449759 33.5380637 32.75 55.25 C32.98223589 58.73353841 33.01488946 62.14555621 32.97265625 65.6328125 C33.03095618 70.679921 33.30819692 75.87517627 34.875 80.6875 C35 83 35 83 32.59375 86.17578125 C29.87018245 89.8682276 29.18545928 92.90607148 28.625 97.5 C24.27110281 126.79015032 11.73898665 155.67736457 -9 177 C-9.59425781 177.64453125 -10.18851563 178.2890625 -10.80078125 178.953125 C-26.83236931 195.90606869 -52.37952591 200.65594352 -74.79582214 201.28404236 C-79.57217889 201.38470474 -84.34769444 201.42055543 -89.125 201.4375 C-90.06916779 201.44385468 -91.01333557 201.45020935 -91.9861145 201.45675659 C-94.70214286 201.46812468 -97.41686945 201.45564458 -100.1328125 201.43359375 C-100.95274185 201.43633301 -101.7726712 201.43907227 -102.6174469 201.44189453 C-107.1957822 201.36735965 -110.30730523 201.01283202 -114 198 C-115.76787918 191.40064979 -113.60553192 185.23210745 -110.890625 179.23828125 C-109.76721976 176.41498649 -109.68364921 174.00533251 -110 171 C-112.19514873 170.0406843 -112.19514873 170.0406843 -115 170 C-120.62991416 173.44688622 -123.11211727 177.74638845 -125 184 C-125.85427636 188.3150664 -126.48691558 192.63203132 -127 197 C-133.05278224 197.32297455 -137.78023727 197.52333984 -143 194 C-146.02858275 189.45712588 -144.94456948 185.22511846 -144 180 C-143.06057514 177.97084231 -142.07401615 175.96124688 -141 174 C-140.66407492 171.2895393 -140.66407492 171.2895393 -141 169 C-142.03876234 167.77485711 -142.03876234 167.77485711 -144.25 167.5625 C-147.65049012 168.10348706 -148.7885724 169.55432416 -150.88671875 172.19921875 C-153.41447307 176.28797222 -154.28069058 180.04955304 -154.625 184.8125 C-154.73714844 186.27623047 -154.73714844 186.27623047 -154.8515625 187.76953125 C-154.90054688 188.50558594 -154.94953125 189.24164062 -155 190 C-159.85409167 187.91522986 -162.01946096 184.83001023 -164 180 C-165.45634202 171.42376367 -163.20892012 165.63863701 -158.421875 158.71875 C-154.86414558 153.91100754 -151.00035419 149.36435441 -146 146 C-145.34 146 -144.68 146 -144 146 C-144.93246912 138.00457329 -145.86316966 130.07169212 -147.55859375 122.1953125 C-148.23811373 118.81575297 -148.61945524 115.42490284 -149 112 C-149.33 112 -149.66 112 -150 112 C-151.05334355 74.99036914 -145.61494021 45.86878424 -121 17 C-120.32582031 16.18015625 -119.65164063 15.3603125 -118.95703125 14.515625 C-89.61108263 -19.90840216 -36.78277649 -27.01977269 0 0 Z " fill="#3F4957" transform="translate(874,746)"/>
<path d="M0 0 C1.55459449 1.29716164 3.09756316 2.60846687 4.625 3.9375 C5.52605469 4.71287109 5.52605469 4.71287109 6.4453125 5.50390625 C21.26608181 19.25620149 32.51703861 41.45921808 33.80200195 61.72973633 C34.34644237 88.73701764 34.34644237 88.73701764 29.625 101.9375 C29.38362305 102.6298877 29.14224609 103.32227539 28.89355469 104.03564453 C20.52232813 127.6172318 4.36555668 146.07958437 -18.14624023 157.18457031 C-39.59377288 167.25162276 -66.72226428 170.51574029 -89.41699219 162.67382812 C-100.39073698 158.5470433 -110.28621763 153.42583443 -119.375 145.9375 C-120.16261719 145.30070313 -120.95023438 144.66390625 -121.76171875 144.0078125 C-139.55971169 128.95959436 -151.22053749 106.26884413 -154.0625 83.1875 C-154.19056849 81.43908667 -154.29184606 79.68862424 -154.375 77.9375 C-154.43945312 76.76703125 -154.50390625 75.5965625 -154.5703125 74.390625 C-155.29126965 50.07033714 -146.27008369 26.99487545 -129.60546875 9.26953125 C-128.50138672 8.11517578 -128.50138672 8.11517578 -127.375 6.9375 C-126.77300781 6.26074219 -126.17101562 5.58398438 -125.55078125 4.88671875 C-92.81527385 -30.54716019 -36.01443694 -28.0413613 0 0 Z " fill="#BEC5CE" transform="translate(331.375,512.0625)"/>
<path d="M0 0 C0.95495361 0.00499512 1.90990723 0.00999023 2.89379883 0.01513672 C24.36862784 0.53676336 41.56923705 11.92038904 56.19140625 27.01171875 C76.61947035 50.2902104 84.18926864 79.05638222 82.375 109.5 C80.7462052 125.12825691 73.95536987 139.38625721 62.43359375 150.125 C51.4498893 158.65385352 38.41581273 163.09249698 24.5625 162.9375 C23.59836182 162.92920166 22.63422363 162.92090332 21.64086914 162.91235352 C14.00297898 162.73207236 7.39676304 161.64156109 0.375 158.5 C-0.68589844 158.025625 -1.74679687 157.55125 -2.83984375 157.0625 C-11.51685554 152.77042282 -18.62024655 147.08853251 -25.625 140.5 C-26.35332031 139.81550781 -27.08164062 139.13101563 -27.83203125 138.42578125 C-47.08186749 118.47024837 -55.29188881 90.94161602 -55.02954102 63.84594727 C-54.55895081 45.37016656 -49.16208283 27.65106494 -36.4375 13.75 C-26.22452466 4.2239961 -13.75692763 -0.09576442 0 0 Z " fill="#3F4957" transform="translate(799.625,229.5)"/>
<path d="M0 0 C10.0495083 8.66723393 18.00519636 19.35173378 19.34619141 33.00146484 C20.63575239 60.29077029 12.13399896 82.72389302 -5.5625 103.4375 C-19.98422435 118.70234054 -42.63542765 130.84849014 -63.875 131.75 C-65.64810547 131.84474609 -65.64810547 131.84474609 -67.45703125 131.94140625 C-81.88807612 132.47679661 -94.50687414 128.97701779 -105.625 119.375 C-106.3675 118.50875 -107.11 117.6425 -107.875 116.75 C-108.62910156 115.87214844 -108.62910156 115.87214844 -109.3984375 114.9765625 C-117.93523325 104.44090726 -118.68487919 91.86104421 -117.875 78.75 C-115.36215282 57.73152405 -105.1478206 37.27364682 -90.875 21.75 C-90.1636792 20.96713623 -90.1636792 20.96713623 -89.43798828 20.16845703 C-67.9271098 -3.26733227 -29.21997372 -21.21043778 0 0 Z " fill="#3F4957" transform="translate(639.875,206.25)"/>
<path d="M0 0 C10.16559735 7.54979649 16.8711103 17.53673183 21.41015625 29.2578125 C21.82265625 30.2890625 22.23515625 31.3203125 22.66015625 32.3828125 C23.69294543 36.34183771 24.14639254 40.17867609 24.41015625 44.2578125 C24.47589844 45.22847656 24.54164063 46.19914062 24.609375 47.19921875 C25.18861693 63.47791428 19.87540295 78.13001317 8.84814453 89.9909668 C4.25603822 94.68330069 -0.83244757 98.11264919 -6.58984375 101.2578125 C-7.34652344 101.70125 -8.10320312 102.1446875 -8.8828125 102.6015625 C-11.71487011 104.17433746 -13.86564209 105.29713598 -17.14819336 105.11889648 C-20.30039395 104.0072265 -20.80543281 102.9377485 -22.28125 99.98046875 C-22.7448291 99.08320068 -23.2084082 98.18593262 -23.68603516 97.26147461 C-24.16991699 96.29089111 -24.65379883 95.32030762 -25.15234375 94.3203125 C-35.13620711 75.18120601 -47.2845503 57.69179072 -62.08203125 41.95703125 C-64.10953615 39.7747791 -66.01451116 37.55831202 -67.90234375 35.2578125 C-73.75423839 28.47591015 -81.14006882 22.22432912 -88.58984375 17.2578125 C-85.39680567 7.35761063 -74.74982708 -0.05968526 -66.08203125 -5.015625 C-43.69060886 -16.08610453 -20.70556939 -13.9286334 0 0 Z " fill="#404A58" transform="translate(977.58984375,127.7421875)"/>
<path d="M0 0 C90.75 0 181.5 0 275 0 C275.33 4.95 275.66 9.9 276 15 C278.19284043 22.63433336 281.09835079 28.76048889 286 35 C286.77537109 35.99966797 286.77537109 35.99966797 287.56640625 37.01953125 C297.21129341 47.95903414 314.75149939 55.32082888 329 57 C334.04936273 57.08591044 339.09792467 56.97444826 344.14648438 56.87304688 C349.88418106 56.81219794 354.48960122 57.24179208 360 59 C374.74863028 60.39843683 385.4487435 56.98216434 397 48 C398.54088695 46.85311834 400.08249335 45.7072023 401.625 44.5625 C402.75126927 43.71000764 403.87679335 42.85652351 405 42 C405.08636719 43.13953125 405.17273438 44.2790625 405.26171875 45.453125 C408.34916802 81.7733197 422.9553958 112.7218556 448 139 C448.67804688 139.73089844 449.35609375 140.46179688 450.0546875 141.21484375 C454.76255176 146.14735714 460.00815394 150.094627 465.55859375 154.01953125 C468 156 468 156 469 159 C469.99 159.66 470.98 160.32 472 161 C472.26667539 163.83727325 472.34791234 166.45383045 472.29296875 169.2890625 C472.28872391 170.10748627 472.28447906 170.92591003 472.28010559 171.76913452 C472.26328679 174.38808836 472.22562974 177.00627802 472.1875 179.625 C472.17245726 181.3984264 472.15876814 183.17186484 472.14648438 184.9453125 C472.11337292 189.2971703 472.06156952 193.64845551 472 198 C460.90674583 192.09976281 451.47585791 184.57699749 442.2578125 176.0703125 C440.23524746 174.21571134 438.16516016 172.44964839 436.0625 170.6875 C422.15484226 158.48681836 411.53729401 143.31392321 403 127 C402.65694824 126.34660645 402.31389648 125.69321289 401.96044922 125.02001953 C394.11995156 109.84918119 387.7252668 92.28321601 388 75 C386.62328125 75.30744141 386.62328125 75.30744141 385.21875 75.62109375 C383.9915625 75.89050781 382.764375 76.15992188 381.5 76.4375 C380.2934375 76.70433594 379.086875 76.97117187 377.84375 77.24609375 C348.76468243 82.94961005 316.9117781 77.58165968 291.92871094 61.35839844 C275.80208509 50.00035462 263.93477846 33.45529349 260 14 C260 9.71 260 5.42 260 1 C174.2 1 88.4 1 0 1 C0 0.67 0 0.34 0 0 Z " fill="#9EA6B1" transform="translate(58,299)"/>
<path d="M0 0 C3.14015022 3.10697054 6.04682583 6.19301203 8.75 9.6875 C29.25094664 35.62196821 54.56992332 52.6875007 84 67 C80.66520676 84.88661827 72.41475177 102.88686507 57.20654297 113.57324219 C42.08188708 123.63408146 25.28598755 126.36291689 7.375 126.1875 C6.116875 126.18685547 4.85875 126.18621094 3.5625 126.18554688 C-14.90154769 126.09845231 -14.90154769 126.09845231 -18 123 C-18.57962478 111.69731679 -13.4920195 102.81803718 -7 94 C-6.21625 93.175 -5.4325 92.35 -4.625 91.5 C-2.24029593 87.83122451 -2.34391421 84.26455762 -3 80 C-3.36480469 79.36835937 -3.72960937 78.73671875 -4.10546875 78.0859375 C-5.39408851 75.08103379 -4.58974577 73.28375309 -3.6875 70.1875 C-1.15248354 61.32067773 -0.81040362 53.03394042 -0.68359375 43.84765625 C-0.66281265 42.59238632 -0.64203156 41.33711639 -0.62062073 40.04380798 C-0.56651257 36.72800883 -0.51620387 33.41219725 -0.46777344 30.09631348 C-0.4172806 26.70413122 -0.36174048 23.31203188 -0.30664062 19.91992188 C-0.19980213 13.28001423 -0.09797642 6.64004401 0 0 Z " fill="#333D4D" transform="translate(550,799)"/>
<path d="M0 0 C15.76733415 -0.4322392 29.56103366 4.73038506 41.64453125 14.890625 C47.573954 20.69027924 55.7597737 30.19603555 56.05859375 38.88671875 C56.02765625 39.63695312 55.99671875 40.3871875 55.96484375 41.16015625 C50.46669938 43.28578874 44.97382904 45.18604638 39.27929688 46.72070312 C10.31881512 54.6389427 -17.65686032 70.44285852 -40.3515625 89.98828125 C-41.16657227 90.68751709 -41.16657227 90.68751709 -41.99804688 91.40087891 C-43.52101186 92.71882938 -45.03042784 94.05238849 -46.5390625 95.38671875 C-47.77462891 96.26457031 -47.77462891 96.26457031 -49.03515625 97.16015625 C-52.03515625 96.16015625 -52.03515625 96.16015625 -53.5703125 93.3515625 C-60.73777079 76.32197489 -63.02904497 59.45429975 -56.51171875 41.78125 C-50.21920304 26.34960434 -38.91916686 12.26195479 -23.5078125 5.1875 C-15.58828914 1.89708192 -8.54084479 0.45067521 0 0 Z " fill="#3F4A58" transform="translate(597.03515625,52.83984375)"/>
<path d="M0 0 C7.38788523 6.0313843 13.16815195 13.44174336 15 23 C15.84369759 32.43281562 14.75528457 39.9378764 9.046875 47.6328125 C2.46235248 55.34545251 -6.45364486 63.26884794 -17.0546875 64.17578125 C-18.7041361 64.18571769 -20.3537337 64.10289164 -22 64 C-21.08815457 61.6443993 -20.18611486 59.34168416 -18.9765625 57.12109375 C-15.63536898 50.68751899 -14.85566865 44.18557613 -16 37 C-18.89579382 34.62777005 -18.89579382 34.62777005 -22.5625 35.25 C-26.04592612 35.6858444 -26.04592612 35.6858444 -28 38 C-28.46565734 39.52758321 -28.87512701 41.07264132 -29.25 42.625 C-31.3873066 50.09477861 -35.61284422 55.56447515 -42 60 C-46.76214765 62.38107382 -53.91864992 61.47953439 -59 60.25 C-62.34339076 58.85692052 -63.2146076 58.08242746 -65 55 C-65.328125 52.16015625 -65.328125 52.16015625 -65.25 49.0625 C-65.23453125 48.04285156 -65.2190625 47.02320313 -65.203125 45.97265625 C-65.01519359 43.22235231 -64.55556928 40.69407007 -64 38 C-63.83736266 35.30213351 -63.90967765 32.70967054 -64 30 C-65.16009906 28.63709042 -65.16009906 28.63709042 -68.3125 28.5625 C-72.15663566 28.60831561 -72.15663566 28.60831561 -74.3125 31.5625 C-77.2714617 37.59001457 -78.30526752 43.4000414 -79 50 C-84.26271525 48.60692831 -87.07271183 45.39093225 -90 41 C-94.20773782 32.80433156 -94.14469932 23.37486291 -91.75 14.625 C-90.38312509 10.61421681 -88.59317007 7.37897919 -86 4 C-85.10087891 2.78957031 -85.10087891 2.78957031 -84.18359375 1.5546875 C-64.50533377 -21.46782059 -22.01377244 -15.57897742 0 0 Z " fill="#404A58" transform="translate(444,278)"/>
<path d="M0 0 C3.34125 1.7015625 3.34125 1.7015625 6.75 3.4375 C57.5671 28.9200042 111.74852121 43.25854129 168 50 C168.98129883 50.12149414 169.96259766 50.24298828 170.97363281 50.36816406 C198.68042585 53.69854643 227.19406657 52.43101984 255 51 C254 53 254 53 252.26126099 53.7071228 C251.50360443 53.92156036 250.74594788 54.13599792 249.96533203 54.35693359 C248.67600266 54.72774551 248.67600266 54.72774551 247.36062622 55.10604858 C246.41919769 55.36753693 245.47776917 55.62902527 244.5078125 55.8984375 C243.53327118 56.17466949 242.55872986 56.45090149 241.55465698 56.73550415 C239.47583635 57.32264028 237.39588888 57.90579857 235.31494141 58.48535156 C232.19776636 59.35470606 229.08505614 60.23872364 225.97265625 61.125 C148.8549092 82.90265342 71.08872937 68.54436468 0 33 C0 22.11 0 11.22 0 0 Z " fill="#333D4C" transform="translate(551,471)"/>
<path d="M0 0 C3.45967106 2.53284712 5.98271991 5.54356482 7.91015625 9.3984375 C8.73390897 15.90743439 7.69930417 21.02067166 3.91015625 26.3984375 C-1.74633925 32.18348971 -8.18791594 34.41069652 -16.08984375 35.3984375 C-19.1074492 44.00220543 -20.83127945 51.84570745 -17.21484375 60.5390625 C-14.84706974 64.45246676 -11.15351593 67.36660141 -7.08984375 69.3984375 C2.98357575 70.24913297 2.98357575 70.24913297 11.91015625 66.3984375 C13.23776347 64.86976114 14.54880792 63.32662305 15.84765625 61.7734375 C18.53756468 58.6266553 19.60188185 57.50816229 23.59765625 56.0859375 C27.61297904 56.46474154 29.12850931 57.53497742 31.91015625 60.3984375 C33.41490713 63.40793925 33.33408266 65.00702618 32.91015625 68.3984375 C28.51945356 78.37878014 21.78439581 83.46103682 11.98828125 87.63671875 C2.2881661 91.19221209 -7.62125828 90.07690118 -17.00390625 86.08984375 C-24.02568845 82.24119604 -29.2244834 76.66493338 -34.08984375 70.3984375 C-34.55132813 70.72457031 -35.0128125 71.05070312 -35.48828125 71.38671875 C-45.3391832 77.98643369 -55.84374646 80.1239922 -67.6015625 77.9296875 C-76.13245811 75.4284825 -84.33607359 69.9986901 -89.08984375 62.3984375 C-91.56176993 57.11575415 -94.18685265 51.29486033 -93.08984375 45.3984375 C-91.21955778 41.58593148 -90.19226076 39.79718408 -86.15234375 38.3359375 C-82.43363452 38.41182953 -81.03953695 39.1639631 -78.08984375 41.3984375 C-76.68359375 44.17578125 -76.68359375 44.17578125 -75.58984375 47.3359375 C-73.60424404 53.05871952 -71.20366155 55.47375484 -66.10546875 58.625 C-60.67210232 60.70989642 -54.00724022 60.17235689 -48.71484375 57.8984375 C-44.30507347 55.25618251 -41.88180364 52.21093585 -40.08984375 47.3984375 C-38.72113237 41.79830638 -37.88719494 36.10306393 -37.08984375 30.3984375 C-38.46076172 30.00398438 -38.46076172 30.00398438 -39.859375 29.6015625 C-45.46680601 27.51318433 -48.78763056 23.37276072 -52.02734375 18.4609375 C-53.65675343 13.76440371 -54.08780578 9.89796278 -52.24609375 5.28515625 C-49.0594671 -0.43139359 -44.51869604 -4.04601483 -38.34375 -6.21484375 C-25.4147543 -8.43316364 -11.3076202 -6.77225892 0 0 Z " fill="#162334" transform="translate(702.08984375,301.6015625)"/>
<path d="M0 0 C-1.08253906 3.24761718 -1.53123106 3.67083084 -4.18359375 5.56640625 C-5.1893042 6.28691162 -5.1893042 6.28691162 -6.21533203 7.02197266 C-6.94864746 7.53034668 -7.68196289 8.0387207 -8.4375 8.5625 C-9.20175293 9.09407715 -9.96600586 9.6256543 -10.75341797 10.17333984 C-50.23785537 37.17627651 -98.8636489 50.52764984 -146.5 50.3125 C-147.32361023 50.31100952 -148.14722046 50.30951904 -148.99578857 50.3079834 C-170.50289519 50.23843318 -193.43571935 48.85476022 -214 42 C-214 34.08 -214 26.16 -214 18 C-210.35675405 16.78558468 -208.65378734 17.31605504 -204.92578125 18.14453125 C-203.1001062 18.54055542 -203.1001062 18.54055542 -201.23754883 18.94458008 C-200.59637115 19.08666901 -199.95519348 19.22875793 -199.29458618 19.37515259 C-188.25140226 21.81183166 -177.2887563 24.06231474 -166 25 C-164.06833984 25.16435547 -164.06833984 25.16435547 -162.09765625 25.33203125 C-113.90423126 28.90948591 -64.48190247 23.95245367 -20.44921875 3.03515625 C-13.63356081 0.15453527 -7.30477364 -1.57532785 0 0 Z " fill="#ECEDEE" transform="translate(766,668)"/>
<path d="M0 0 C10.91257203 0.71813779 22.12293021 4.5593007 29.56640625 12.90234375 C35.40012037 20.28697211 37.46909773 26.49063462 37.35546875 35.8046875 C37.34572021 36.69140137 37.33597168 37.57811523 37.32592773 38.49169922 C37.0274319 49.53503311 34.1639989 56.79196943 26.4296875 64.8203125 C17.03681248 73.17602714 8.18907579 74.95294782 -4.02539062 74.29443359 C-10.7516924 73.51033716 -16.85477524 70.2193938 -22.08203125 66.0546875 C-21.47650484 60.8956025 -19.82238805 56.69907582 -17.76953125 51.9921875 C-12.69461542 39.97652104 -9.44631456 27.76062601 -6.54785156 15.07763672 C-5.85391662 12.06403872 -5.13026315 9.05833082 -4.39453125 6.0546875 C-4.16378906 5.1059375 -3.93304687 4.1571875 -3.6953125 3.1796875 C-2.79886229 0.07351608 -2.79886229 0.07351608 0 0 Z " fill="#3F4957" transform="translate(957.08203125,756.9453125)"/>
<path d="M0 0 C3.94211397 1.34459701 7.11908006 3.31061582 10.56738281 5.5793457 C34.36632168 21.06995256 62.2980078 28.36018152 90.10546875 32.56201172 C92.01068797 32.85030147 93.91443159 33.14854757 95.81640625 33.45751953 C141.13442045 40.76103121 187.19257715 33.98809888 231.24633789 22.67675781 C233.82082137 22.0440361 236.39648178 21.49805919 239 21 C239.33 21.66 239.66 22.32 240 23 C208.85574349 35.84026197 176.49438844 45.87285234 142.5 46.2734375 C141.51823792 46.28592026 140.53647583 46.29840302 139.52496338 46.31126404 C115.86875506 46.55341145 93.21076004 45.69379685 70 41 C68.94989746 40.79181641 67.89979492 40.58363281 66.81787109 40.36914062 C45.75147676 36.07738796 18.50847208 29.12304634 4.8359375 11.15625 C0 3.83491036 0 3.83491036 0 0 Z " fill="#333D4C" transform="translate(503,629)"/>
<path d="M0 0 C7.55986489 7.03736883 11.93796378 16.08684029 12.30859375 26.43359375 C12.21666036 30.74789641 11.45486377 33.72847149 8.99609375 37.37109375 C5.48356229 39.71278139 4.13140019 39.86733052 -0.00390625 39.37109375 C-2.81640625 38.05859375 -2.81640625 38.05859375 -5.00390625 35.37109375 C-5.32421875 32.97265625 -5.32421875 32.97265625 -5.44140625 30.18359375 C-5.74301714 23.91678973 -7.8415577 20.00556053 -12.00390625 15.37109375 C-17.99576557 10.17142737 -23.96340988 10.01107478 -31.6171875 10.10546875 C-35.97943949 10.44760616 -37.93606456 11.22655602 -41.00390625 14.37109375 C-42.66811087 16.68159142 -44.2261804 19.01305479 -45.70703125 21.4453125 C-47.00390625 23.37109375 -47.00390625 23.37109375 -49.00390625 24.37109375 C-52.73024084 24.71612473 -55.14326625 24.85658298 -58.44140625 22.99609375 C-60.90469309 18.85777187 -60.67663269 15.05893484 -60.00390625 10.37109375 C-57.85020675 2.52649294 -51.53250453 -2.77695779 -44.8515625 -6.984375 C-29.94698885 -14.90868767 -12.5182197 -10.17562888 0 0 Z " fill="#152436" transform="translate(825.00390625,293.62890625)"/>
<path d="M0 0 C3.58395556 1.33088408 5.92894365 3.61323691 8.609375 6.2421875 C9.61718965 7.20708875 10.62630272 8.17063568 11.63671875 9.1328125 C12.13453857 9.61000732 12.6323584 10.08720215 13.14526367 10.57885742 C14.66781044 11.98842455 16.23661223 13.30929218 17.84375 14.62109375 C20.14949163 16.55422244 22.06065493 18.38812432 23.984375 20.6796875 C25.84838505 22.8774286 27.71536911 25.03820058 29.6953125 27.1328125 C47.69341476 46.23549143 62.52611022 71.0779647 67.671875 96.9921875 C65.28176724 98.49707016 63.94585316 99.00361297 61.09008789 98.88452148 C57.97522551 97.73511997 57.44774933 96.65501763 55.98046875 93.71484375 C55.51688965 92.81757568 55.05331055 91.92030762 54.57568359 90.99584961 C54.09180176 90.02526611 53.60791992 89.05468262 53.109375 88.0546875 C43.12551164 68.91558101 30.97716845 51.42616572 16.1796875 35.69140625 C14.1521826 33.5091541 12.24720759 31.29268702 10.359375 28.9921875 C4.50748036 22.21028515 -2.87835007 15.95870412 -10.328125 10.9921875 C-8.91365173 6.18297838 -5.57481995 -0.01870745 0 0 Z " fill="#333D4C" transform="translate(899.328125,134.0078125)"/>
<path d="M0 0 C6.36781713 5.39819344 10.64423081 10.05849505 11.53515625 18.484375 C11.87207478 28.06673434 11.87207478 28.06673434 9.38671875 31.40234375 C6.40362421 33.56613768 4.64239353 33.59941688 1.06640625 33.38671875 C-0.83203125 33.01171875 -0.83203125 33.01171875 -3.20703125 31.51171875 C-5.06337841 28.65580004 -5.51947439 26.27091945 -6.20703125 22.98046875 C-7.22509717 19.7735611 -9.26852791 18.07502631 -11.83203125 16.01171875 C-18.0106655 13.952174 -25.60987121 13.63973105 -31.6484375 16.2109375 C-36.24972027 19.2203432 -39.79845277 22.3631739 -41.83203125 27.57421875 C-43.44173102 31.49786194 -43.44173102 31.49786194 -45.83203125 33.01171875 C-50.15147184 33.49165659 -52.56838649 33.73831448 -56.33203125 31.57421875 C-58.62100027 27.66389667 -58.6256524 24.42839297 -57.83203125 20.01171875 C-53.73494386 8.5747429 -46.41355505 1.6369541 -35.83203125 -3.98828125 C-24.65113819 -8.84766939 -9.81191941 -6.88864411 0 0 Z " fill="#152437" transform="translate(616.83203125,250.98828125)"/>
<path d="M0 0 C2 1 2 1 3.0703125 3.95703125 C5.06200544 11.23777543 6.36526007 17.60185802 6.078125 25.2109375 C5.93281824 30.39838881 6.2638073 35.7388367 7.875 40.6875 C8 43 8 43 5.59375 46.17578125 C2.87018245 49.8682276 2.18545928 52.90607148 1.625 57.5 C-2.72889719 86.79015032 -15.26101335 115.67736457 -36 137 C-36.59425781 137.64453125 -37.18851563 138.2890625 -37.80078125 138.953125 C-44.7024732 146.25146592 -52.1720739 150.30055565 -61.5 153.8125 C-62.2950293 154.11478516 -63.09005859 154.41707031 -63.90917969 154.72851562 C-69.30528172 156.67013488 -74.28134389 157.55966348 -80 158 C-77.19437207 155.03335071 -74.05928393 153.24466904 -70.5 151.3125 C-39.9045071 134.21432038 -20.2268033 105.5243575 -10.72827148 72.06713867 C-5.89472405 53.67572791 -3.46616137 35.08331846 -2.63208008 16.12841797 C-2.57431396 14.89236816 -2.51654785 13.65631836 -2.45703125 12.3828125 C-2.3947937 10.74916748 -2.3947937 10.74916748 -2.33129883 9.08251953 C-1.98083567 5.82168837 -1.14460623 3.06474862 0 0 Z " fill="#323C4C" transform="translate(901,786)"/>
<path d="M0 0 C5.31935078 11.74756924 9.87124057 23.7700868 14.21621704 35.90591431 C14.82230948 37.59429869 15.43362723 39.28081639 16.05014038 40.96542358 C16.9265037 43.366266 17.78225435 45.77350721 18.6328125 48.18359375 C19.03680519 49.27634613 19.03680519 49.27634613 19.44895935 50.39117432 C21.18484353 55.41515607 21.18484353 55.41515607 20.26904297 58.31274414 C19.85025879 58.86953857 19.43147461 59.42633301 19 60 C16.90121531 63.04662293 15.10815444 65.70969072 13.8125 69.1875 C11.5722869 74.78803276 6.44014005 82.27992997 1 85 C0.93530518 84.43418213 0.87061035 83.86836426 0.80395508 83.28540039 C-2.32756576 56.44571324 -6.8593484 30.39319861 -19 6 C-18.08476563 5.65066406 -17.16953125 5.30132812 -16.2265625 4.94140625 C-15.03804687 4.48636719 -13.84953125 4.03132813 -12.625 3.5625 C-11.44164062 3.11003906 -10.25828125 2.65757812 -9.0390625 2.19140625 C-3.44918033 0 -3.44918033 0 0 0 Z " fill="#323C4B" transform="translate(877,503)"/>
<path d="M0 0 C0 1.65 0 3.3 0 5 C-5.49814437 7.12563249 -10.99101471 9.02589013 -16.68554688 10.56054688 C-45.64602863 18.47878645 -73.62170407 34.28270227 -96.31640625 53.828125 C-96.85974609 54.29428223 -97.40308594 54.76043945 -97.96289062 55.24072266 C-99.48585561 56.55867313 -100.99527159 57.89223224 -102.50390625 59.2265625 C-103.73947266 60.10441406 -103.73947266 60.10441406 -105 61 C-108 60 -108 60 -109.6875 57.4375 C-111.18879237 53.5055438 -112.03625902 50.11486339 -111 46 C-108.86244769 43.43793649 -106.25064912 41.819702 -103.4375 40.0625 C-102.28036499 39.29728027 -102.28036499 39.29728027 -101.09985352 38.51660156 C-98.75213246 36.97889603 -96.3811876 35.48522044 -94 34 C-93.33355469 33.57509277 -92.66710937 33.15018555 -91.98046875 32.71240234 C-65.9392493 16.14010456 -31.4772698 -1.1878215 0 0 Z " fill="#333D4C" transform="translate(653,89)"/>
<path d="M0 0 C1.73438275 3.25687259 2.95102529 6.58939869 4.1875 10.0625 C11.75315471 29.7817283 26.00241565 42.57275448 44.78149414 51.38720703 C49.90399022 53.80798044 49.90399022 53.80798044 51 56 C51.08510205 57.9593604 51.10717656 59.92162794 51.09765625 61.8828125 C51.09443359 63.04941406 51.09121094 64.21601562 51.08789062 65.41796875 C51.07532227 67.25294922 51.07532227 67.25294922 51.0625 69.125 C51.05798828 70.35605469 51.05347656 71.58710937 51.04882812 72.85546875 C51.0370133 75.90369392 51.02054028 78.95182314 51 82 C40.93229359 77.36405489 32.23031357 72.5779953 24 65 C23.36964844 64.46117187 22.73929687 63.92234375 22.08984375 63.3671875 C7.83174472 50.44071047 -0.09190689 29.23578438 -1.2109375 10.4609375 C-1.30463287 2.60926573 -1.30463287 2.60926573 0 0 Z " fill="#9EA7B2" transform="translate(478,622)"/>
<path d="M0 0 C4.78369141 0.77246094 4.78369141 0.77246094 6.73046875 2.8203125 C12.52176213 11.98080337 14.79518683 20.84334574 12.41796875 31.64453125 C8.85283751 41.98178394 0.49564665 49.91664146 -9 55 C-15.63878327 58 -15.63878327 58 -19 58 C-18.49727996 54.56474642 -16.91683585 52.2062183 -14.96557617 49.38574219 C-4.43499619 34.13236945 -2.40051506 18.05171037 0 0 Z " fill="#343D4D" transform="translate(446,284)"/>
<path d="M0 0 C2.00720923 0.28674418 4.0085944 0.61866701 6 1 C7.28181577 21.69895088 1.41093073 43.03539731 -7.1875 61.6875 C-7.52031982 62.41283936 -7.85313965 63.13817871 -8.19604492 63.88549805 C-9.04541793 65.63438289 -10.01396032 67.32436327 -11 69 C-12.485 69.495 -12.485 69.495 -14 70 C-17.1875 68.0625 -17.1875 68.0625 -20 66 C-19.39447359 60.840915 -17.7403568 56.64438832 -15.6875 51.9375 C-10.61258417 39.92183354 -7.36428331 27.70593851 -4.46582031 15.02294922 C-3.77188537 12.00935122 -3.0482319 9.00364332 -2.3125 6 C-2.08175781 5.05125 -1.85101562 4.1025 -1.61328125 3.125 C-1 1 -1 1 0 0 Z " fill="#333D4C" transform="translate(955,757)"/>
<path d="M0 0 C-0.19335938 0.59425781 -0.38671875 1.18851563 -0.5859375 1.80078125 C-2.57733216 8.13972563 -3.94051231 14.44364086 -5 21 C-13.17516429 20.80866637 -20.55557295 19.07489042 -26.73828125 13.40625 C-30 9.65757042 -30 9.65757042 -30 7 C-28.98421875 6.82984375 -27.9684375 6.6596875 -26.921875 6.484375 C-19.11766783 5.12724563 -11.72909539 3.48728674 -4.2578125 0.76953125 C-2 0 -2 0 0 0 Z " fill="#333D4D" transform="translate(524,900)"/>
<path d="M0 0 C12.54 0 25.08 0 38 0 C38 0.33 38 0.66 38 1 C36.41058594 1.09087891 36.41058594 1.09087891 34.7890625 1.18359375 C33.40102779 1.26800127 32.01300768 1.35264917 30.625 1.4375 C29.92632813 1.47681641 29.22765625 1.51613281 28.5078125 1.55664062 C24.62639508 1.74280134 24.62639508 1.74280134 21 3 C17.83938787 3.26258862 14.67032632 3.23143294 11.5 3.25 C10.61957031 3.270625 9.73914063 3.29125 8.83203125 3.3125 C7.99027344 3.31765625 7.14851562 3.3228125 6.28125 3.328125 C5.50845703 3.3374707 4.73566406 3.34681641 3.93945312 3.35644531 C3.29943359 3.23881836 2.65941406 3.12119141 2 3 C1.34 2.01 0.68 1.02 0 0 Z " fill="#232E3E" transform="translate(767,963)"/>
<path d="M0 0 C1.32 0.33 2.64 0.66 4 1 C4 1.66 4 2.32 4 3 C7.3 3 10.6 3 14 3 C14 3.33 14 3.66 14 4 C2.78461253 4.20127315 -7.96308188 4.25572049 -19 2 C-19 1.67 -19 1.34 -19 1 C-12.73 1 -6.46 1 0 1 C0 0.67 0 0.34 0 0 Z " fill="#0D1118" transform="translate(763,961)"/>
<path d="M0 0 C0.66 0.33 1.32 0.66 2 1 C-2.56637806 5.7006833 -7.0336256 10.12730122 -13 13 C-13.33 13.66 -13.66 14.32 -14 15 C-14.66 15 -15.32 15 -16 15 C-14.44368378 10.82712713 -11.36823893 8.51741829 -8 5.8125 C-7.4534375 5.36197266 -6.906875 4.91144531 -6.34375 4.44726562 C-2.32553089 1.16276544 -2.32553089 1.16276544 0 0 Z " fill="#171E29" transform="translate(556,47)"/>
<path d="M0 0 C0.33 0 0.66 0 1 0 C1.9173273 3.91882221 2.16438768 7.60345677 2.1875 11.625 C2.20167969 12.75164062 2.21585938 13.87828125 2.23046875 15.0390625 C2 18 2 18 0 21 C-1.57152719 17.85694562 -1.14318589 14.508726 -1.125 11.0625 C-1.12886719 10.33353516 -1.13273438 9.60457031 -1.13671875 8.85351562 C-1.1308304 5.64142264 -1.02261853 3.0678556 0 0 Z " fill="#2B2F39" transform="translate(1020,167)"/>
<path d="M0 0 C0.33 0 0.66 0 1 0 C1.02691685 2.45840605 1.04679802 4.91651882 1.0625 7.375 C1.07087891 8.07367187 1.07925781 8.77234375 1.08789062 9.4921875 C1.11328125 14.7734375 1.11328125 14.7734375 0 17 C-0.22622081 18.70363822 -0.40888473 20.41328701 -0.5625 22.125 C-0.68818359 23.49011719 -0.68818359 23.49011719 -0.81640625 24.8828125 C-0.87699219 25.58148437 -0.93757812 26.28015625 -1 27 C-1.33 27 -1.66 27 -2 27 C-2.05784708 22.87505849 -2.09354407 18.75022056 -2.125 14.625 C-2.14175781 13.449375 -2.15851562 12.27375 -2.17578125 11.0625 C-2.18222656 9.94101562 -2.18867187 8.81953125 -2.1953125 7.6640625 C-2.20578613 6.62717285 -2.21625977 5.5902832 -2.22705078 4.52197266 C-2 2 -2 2 0 0 Z " fill="#2D394B" transform="translate(954,712)"/>
<path d="M0 0 C0.33 0.66 0.66 1.32 1 2 C-1.44788702 6.89577404 -4.27685699 10.99046137 -8 15 C-8.99 15.33 -9.98 15.66 -11 16 C-9.55049595 11.64352355 -7.32252888 8.68242711 -4.375 5.1875 C-3.55773437 4.21167969 -2.74046875 3.23585938 -1.8984375 2.23046875 C-1.27195312 1.49441406 -0.64546875 0.75835938 0 0 Z " fill="#2B323F" transform="translate(753,763)"/>
<path d="M0 0 C0 0.66 0 1.32 0 2 C0.598125 2.185625 1.19625 2.37125 1.8125 2.5625 C5.09276779 4.71810455 5.78558993 7.35676979 7 11 C6.67 11.99 6.34 12.98 6 14 C5.78988281 13.31292969 5.57976562 12.62585938 5.36328125 11.91796875 C4.18105756 8.84594511 3.08729006 6.56167417 1 4 C-3.25036785 2.24530819 -7.44505241 1.52018435 -12 1 C-12 0.67 -12 0.34 -12 0 C-3.42857143 -1.28571429 -3.42857143 -1.28571429 0 0 Z " fill="#090F16" transform="translate(119,622)"/>
<path d="M0 0 C0.33 0 0.66 0 1 0 C1.125 5.75 1.125 5.75 0 8 C0.66 8 1.32 8 2 8 C2 11.63 2 15.26 2 19 C1.01 18.34 0.02 17.68 -1 17 C-1.24950462 14.40990446 -1.32719737 12.0812871 -1.25 9.5 C-1.24484375 8.81035156 -1.2396875 8.12070312 -1.234375 7.41015625 C-1.15483526 2.30967052 -1.15483526 2.30967052 0 0 Z " fill="#252F3B" transform="translate(962,303)"/>
<path d="M0 0 C1.32 0.33 2.64 0.66 4 1 C1.03 3.97 -1.94 6.94 -5 10 C-5.33 8.68 -5.66 7.36 -6 6 C-4.92578125 4.26171875 -4.92578125 4.26171875 -3.3125 2.6875 C-2.53326172 1.88892578 -2.53326172 1.88892578 -1.73828125 1.07421875 C-1.16464844 0.71972656 -0.59101562 0.36523438 0 0 Z " fill="#373F4E" transform="translate(762,753)"/>
<path d="M0 0 C-6.62615673 3.09866202 -11.67372525 4.47266289 -19 4 C-14.0004431 0.66696207 -5.88082738 -2.94041369 0 0 Z " fill="#242D3C" transform="translate(774,663)"/>
<path d="M0 0 C0.66 0 1.32 0 2 0 C3.18082522 3.69007882 3.28527337 7.14880946 3 11 C2.01 11.66 1.02 12.32 0 13 C0 8.71 0 4.42 0 0 Z " fill="#232E3D" transform="translate(977,340)"/>
<path d="M0 0 C0.66 0.33 1.32 0.66 2 1 C-1.3 4.3 -4.6 7.6 -8 11 C-8.66 10.67 -9.32 10.34 -10 10 C-8.90033225 8.70450101 -7.79508199 7.41373929 -6.6875 6.125 C-6.07261719 5.40570312 -5.45773437 4.68640625 -4.82421875 3.9453125 C-3 2 -3 2 0 0 Z " fill="#47515D" transform="translate(511,574)"/>
<path d="M0 0 C5.45769811 -0.11138159 10.61509359 0.08342019 16 1 C16 1.33 16 1.66 16 2 C11.05 2.33 6.1 2.66 1 3 C0.67 2.01 0.34 1.02 0 0 Z " fill="#485260" transform="translate(812,389)"/>
<path d="M0 0 C1.32 0.66 2.64 1.32 4 2 C3.67 2.66 3.34 3.32 3 4 C0.93359375 4.4140625 0.93359375 4.4140625 -1.5625 4.625 C-2.38878906 4.69976563 -3.21507812 4.77453125 -4.06640625 4.8515625 C-5.02353516 4.92503906 -5.02353516 4.92503906 -6 5 C-4.06745228 2.9754262 -2.36841312 1.57894208 0 0 Z " fill="#414958" transform="translate(769,659)"/>
<path d="M0 0 C9.41002278 -0.18451025 9.41002278 -0.18451025 14 1 C14 1.33 14 1.66 14 2 C9.38 2.33 4.76 2.66 0 3 C0 2.01 0 1.02 0 0 Z " fill="#293546" transform="translate(101,620)"/>
<path d="M0 0 C4.23998354 -0.39259107 7.36733941 -0.32490278 11 2 C8.35541621 3.32229189 6.32238699 3.09677194 3.375 3.0625 C2.37210938 3.05347656 1.36921875 3.04445313 0.3359375 3.03515625 C-0.43492187 3.02355469 -1.20578125 3.01195312 -2 3 C-1.34 2.01 -0.68 1.02 0 0 Z " fill="#2E3849" transform="translate(699,372)"/>
<path d="M0 0 C0.66 0.33 1.32 0.66 2 1 C-0.97 3.97 -3.94 6.94 -7 10 C-7.66 9.67 -8.32 9.34 -9 9 C-6.21000549 5.51250686 -3.74764169 2.49842779 0 0 Z " fill="#49515E" transform="translate(366,274)"/>
<path d="M0 0 C3.3 0.99 6.6 1.98 10 3 C10 3.66 10 4.32 10 5 C10.99 5.33 11.98 5.66 13 6 C12.34 6.66 11.68 7.32 11 8 C10.484375 7.401875 9.96875 6.80375 9.4375 6.1875 C6.43466313 3.4926464 3.75126391 2.44279381 0 1 C0 0.67 0 0.34 0 0 Z " fill="#25313F" transform="translate(221,728)"/>
<path d="M0 0 C2.97 0.33 5.94 0.66 9 1 C9 1.99 9 2.98 9 4 C6.03 3.67 3.06 3.34 0 3 C0 2.01 0 1.02 0 0 Z " fill="#DEDFE2" transform="translate(570,689)"/>
<path d="M0 0 C-0.33 0.99 -0.66 1.98 -1 3 C-7.75 2.25 -7.75 2.25 -10 0 C-6.42355152 -1.2380014 -3.66305234 -0.74926071 0 0 Z " fill="#E2E5E7" transform="translate(766,668)"/>
<path d="M0 0 C2.09230769 3.44615385 2.09230769 3.44615385 1.6875 5.875 C1.460625 6.57625 1.23375 7.2775 1 8 C0.65421232 9.99788438 0.31856451 11.99759451 0 14 C-0.33 14 -0.66 14 -1 14 C-1.02694851 12.04174127 -1.04637218 10.08337774 -1.0625 8.125 C-1.07410156 7.03445313 -1.08570313 5.94390625 -1.09765625 4.8203125 C-1 2 -1 2 0 0 Z " fill="#A8B0BA" transform="translate(478,622)"/>
<path d="M0 0 C1 2 1 2 0.375 4.5 C-1 7 -1 7 -6 9 C-4.02 6.03 -2.04 3.06 0 0 Z " fill="#10161F" transform="translate(935,428)"/>
<path d="M0 0 C0.08159574 4.16138263 -0.01751476 7.9472484 -1 12 C-1.33 12 -1.66 12 -2 12 C-2.33 8.37 -2.66 4.74 -3 1 C-1 0 -1 0 0 0 Z " fill="#243140" transform="translate(937,753)"/>
<path d="M0 0 C2.97 0.99 5.94 1.98 9 3 C4.99998285 4.00000429 2.94476647 3.80688405 -1 3 C-0.67 2.01 -0.34 1.02 0 0 Z " fill="#CFD5DB" transform="translate(295,494)"/>
<path d="M0 0 C-0.99 0.33 -1.98 0.66 -3 1 C-3 1.66 -3 2.32 -3 3 C-7.455 3.495 -7.455 3.495 -12 4 C-11 2 -11 2 -8.25 0.875 C-5.29813104 0.08026605 -3.02780163 -0.17810598 0 0 Z " fill="#D9E0E5" transform="translate(250,494)"/>
<path d="M0 0 C1.65 1.65 3.3 3.3 5 5 C4.67 5.66 4.34 6.32 4 7 C3.34 6.34 2.68 5.68 2 5 C1.34 6.32 0.68 7.64 0 9 C0 6.03 0 3.06 0 0 Z " fill="#3B4351" transform="translate(550,799)"/>
<path d="M0 0 C2.13586678 3.20380017 2.23132175 4.01939967 2.125 7.6875 C2.10695313 8.49574219 2.08890625 9.30398438 2.0703125 10.13671875 C2.04710937 10.75160156 2.02390625 11.36648438 2 12 C1.67 10.68 1.34 9.36 1 8 C0.34 8 -0.32 8 -1 8 C-0.67 5.36 -0.34 2.72 0 0 Z " fill="#0A0E16" transform="translate(949,677)"/>
<path d="M0 0 C0.99 0 1.98 0 3 0 C3 2.31 3 4.62 3 7 C2.01 7.33 1.02 7.66 0 8 C0 5.36 0 2.72 0 0 Z " fill="#2F3948" transform="translate(480,345)"/>
<path d="M0 0 C0.66 0.33 1.32 0.66 2 1 C-0.31 3.31 -2.62 5.62 -5 8 C-5.66 7.67 -6.32 7.34 -7 7 C-4.66666667 4.66666667 -2.33333333 2.33333333 0 0 Z " fill="#0D1C30" transform="translate(574,251)"/>
<path d="M0 0 C0.99 0.33 1.98 0.66 3 1 C2.67 3.31 2.34 5.62 2 8 C1.34 8 0.68 8 0 8 C0 5.36 0 2.72 0 0 Z " fill="#263040" transform="translate(951,701)"/>
<path d="M0 0 C-4.33273814 0.92844389 -7.66726186 0.92844389 -12 0 C-12 -0.33 -12 -0.66 -12 -1 C-3.42857143 -2.42857143 -3.42857143 -2.42857143 0 0 Z " fill="#121820" transform="translate(119,623)"/>
<path d="M0 0 C0.99 0.33 1.98 0.66 3 1 C2.360625 1.103125 1.72125 1.20625 1.0625 1.3125 C0.0415625 1.6528125 0.0415625 1.6528125 -1 2 C-1.33 2.99 -1.66 3.98 -2 5 C-3.32 4.67 -4.64 4.34 -6 4 C-3.1875 1.9375 -3.1875 1.9375 0 0 Z " fill="#0B101B" transform="translate(509,554)"/>
<path d="M0 0 C2.3125 -0.1875 2.3125 -0.1875 5 0 C5.99 0.99 6.98 1.98 8 3 C5.03 3 2.06 3 -1 3 C-0.67 2.01 -0.34 1.02 0 0 Z " fill="#283344" transform="translate(99,548)"/>
<path d="M0 0 C0.99 0 1.98 0 3 0 C3 2.31 3 4.62 3 7 C2.01 6.67 1.02 6.34 0 6 C0 4.02 0 2.04 0 0 Z " fill="#2B3544" transform="translate(960,354)"/>
</svg>
